<svg id="instagram" xmlns="http://www.w3.org/2000/svg" width="20.012" height="20.012" viewBox="0 0 20.012 20.012">
  <path id="Pfad_1" data-name="Pfad 1" d="M14.49,0H5.523A5.529,5.529,0,0,0,0,5.523V14.49a5.529,5.529,0,0,0,5.523,5.523H14.49a5.529,5.529,0,0,0,5.523-5.523V5.523A5.529,5.529,0,0,0,14.49,0Zm3.747,14.49a3.751,3.751,0,0,1-3.747,3.747H5.523A3.751,3.751,0,0,1,1.776,14.49V5.523A3.751,3.751,0,0,1,5.523,1.776H14.49a3.751,3.751,0,0,1,3.747,3.747V14.49Z" fill="#fff"/>
  <path id="Pfad_2" data-name="Pfad 2" d="M46.125,40.97a5.157,5.157,0,1,0,5.157,5.157A5.162,5.162,0,0,0,46.125,40.97Zm0,8.537a3.381,3.381,0,1,1,3.381-3.381A3.385,3.385,0,0,1,46.125,49.507Z" transform="translate(-36.118 -36.12)" fill="#fff"/>
  <path id="Pfad_3" data-name="Pfad 3" d="M120.223,28.251a1.3,1.3,0,1,0,.921.381A1.307,1.307,0,0,0,120.223,28.251Z" transform="translate(-104.844 -24.907)" fill="#fff"/>
</svg>
