<svg id="soundcloud" xmlns="http://www.w3.org/2000/svg" width="22.636" height="12.739" viewBox="0 0 22.636 12.739">
  <g id="Gruppe_2" data-name="Gruppe 2" transform="translate(11.318 0)">
    <g id="Gruppe_1" data-name="Gruppe 1" transform="translate(0 0)">
      <path id="Pfad_4" data-name="Pfad 4" d="M263.781,117.662a3.52,3.52,0,0,0-.737.078,6.379,6.379,0,0,0-6.337-5.74.708.708,0,0,0-.707.708v11.323a.708.708,0,0,0,.707.708h7.074a3.539,3.539,0,0,0,0-7.077Z" transform="translate(-256 -112)" fill="#fff"/>
    </g>
  </g>
  <g id="Gruppe_4" data-name="Gruppe 4" transform="translate(8.488 1.415)">
    <g id="Gruppe_3" data-name="Gruppe 3">
      <path id="Pfad_5" data-name="Pfad 5" d="M192.707,144a.708.708,0,0,0-.707.708v9.908a.707.707,0,1,0,1.415,0v-9.908A.708.708,0,0,0,192.707,144Z" transform="translate(-192 -144)" fill="#fff"/>
    </g>
  </g>
  <g id="Gruppe_6" data-name="Gruppe 6" transform="translate(5.659 4.246)">
    <g id="Gruppe_5" data-name="Gruppe 5" transform="translate(0 0)">
      <path id="Pfad_6" data-name="Pfad 6" d="M128.707,208a.708.708,0,0,0-.707.708v7.077a.707.707,0,1,0,1.415,0v-7.077A.708.708,0,0,0,128.707,208Z" transform="translate(-128 -208)" fill="#fff"/>
    </g>
  </g>
  <g id="Gruppe_8" data-name="Gruppe 8" transform="translate(2.829 4.246)">
    <g id="Gruppe_7" data-name="Gruppe 7" transform="translate(0 0)">
      <path id="Pfad_7" data-name="Pfad 7" d="M64.707,208a.708.708,0,0,0-.707.708v7.077a.707.707,0,1,0,1.415,0v-7.077A.708.708,0,0,0,64.707,208Z" transform="translate(-64 -208)" fill="#fff"/>
    </g>
  </g>
  <g id="Gruppe_10" data-name="Gruppe 10" transform="translate(0 6.369)">
    <g id="Gruppe_9" data-name="Gruppe 9" transform="translate(0 0)">
      <path id="Pfad_8" data-name="Pfad 8" d="M.707,256a.708.708,0,0,0-.707.708v4.246a.707.707,0,1,0,1.415,0v-4.246A.708.708,0,0,0,.707,256Z" transform="translate(0 -256)" fill="#fff"/>
    </g>
  </g>
</svg>
