<svg id="Capa_1" enable-background="new 0 0 512 512" height="512" viewBox="0 0 512 512" width="512" xmlns="http://www.w3.org/2000/svg"><path d="m437.02 74.98c-48.353-48.351-112.64-74.98-181.02-74.98s-132.667 26.629-181.02 74.98c-48.351 48.353-74.98 112.64-74.98 181.02s26.629 132.667 74.98 181.02c48.353 48.351 112.64 74.98 181.02 74.98 61.524 0 119.728-21.568 166-61.108v61.108h90v-256c0-68.38-26.629-132.667-74.98-181.02zm-181.02 407.02c-124.617 0-226-101.383-226-226s101.383-226 226-226 226 101.383 226 226-101.383 226-226 226zm226 0h-30v-61.315c11.604-13.764 21.646-28.557 30-44.175z"/><path d="m256 211c-24.813 0-45 20.187-45 45s20.187 45 45 45 45-20.187 45-45-20.187-45-45-45zm0 60c-8.271 0-15-6.729-15-15s6.729-15 15-15 15 6.729 15 15-6.729 15-15 15z"/><path d="m320.952 293.5c-8.134 14.089-8.134 30.911 0 45l46.159 79.95 13.676-11.302c36.442-30.119 60.776-72.268 68.519-118.681l2.914-17.467h-92.297c-16.268 0-30.837 8.411-38.971 22.5zm53.911 78.377-27.93-48.377c-3.908-6.77-1.302-12.745 0-15s5.174-7.5 12.99-7.5h55.892c-7.484 26.62-21.568 50.996-40.952 70.877z"/><path d="m256 181c16.268 0 30.837-8.411 38.971-22.5l46.17-79.969-16.608-6.2c-21.918-8.183-44.976-12.331-68.533-12.331s-46.615 4.148-68.533 12.331l-16.608 6.2 46.17 79.969c8.134 14.089 22.703 22.5 38.971 22.5zm0-91c13.919 0 27.628 1.707 40.941 5.089l-27.95 48.411c-3.909 6.77-10.387 7.5-12.991 7.5s-9.082-.73-12.991-7.5l-27.95-48.411c13.313-3.382 27.022-5.089 40.941-5.089z"/><path d="m320.952 218.5c8.134 14.089 22.703 22.5 38.971 22.5h92.297l-2.914-17.468c-7.743-46.413-32.077-88.562-68.519-118.681l-13.676-11.301-46.159 79.95c-8.134 14.089-8.134 30.911 0 45zm25.981-30 27.93-48.377c19.384 19.881 33.468 44.257 40.952 70.877h-55.892c-7.816 0-11.688-5.245-12.99-7.5s-3.909-8.23 0-15z"/><path d="m191.048 293.5c-8.134-14.089-22.703-22.5-38.971-22.5h-92.297l2.914 17.468c7.743 46.413 32.077 88.562 68.519 118.681l13.676 11.302 46.159-79.95c8.134-14.09 8.134-30.912 0-45.001zm-25.981 30-27.93 48.377c-19.384-19.881-33.468-44.257-40.951-70.877h55.892c7.816 0 11.688 5.245 12.99 7.5 1.301 2.255 3.908 8.23-.001 15z"/><path d="m256 331c-16.268 0-30.837 8.411-38.971 22.5l-46.17 79.969 16.608 6.2c21.918 8.183 44.976 12.331 68.533 12.331 23.556 0 46.614-4.148 68.533-12.33l16.609-6.199-46.17-79.971c-8.135-14.089-22.704-22.5-38.972-22.5zm0 91c-13.919 0-27.628-1.707-40.941-5.089l27.95-48.411c3.909-6.77 10.387-7.5 12.991-7.5s9.082.73 12.991 7.5l27.95 48.412c-13.314 3.381-27.022 5.088-40.941 5.088z"/><path d="m191.048 218.5c8.134-14.089 8.134-30.911 0-45l-46.159-79.95-13.676 11.302c-36.442 30.119-60.776 72.268-68.519 118.681l-2.914 17.467h92.297c16.268 0 30.837-8.411 38.971-22.5zm-53.911-78.377 27.93 48.377c3.908 6.77 1.302 12.745 0 15s-5.174 7.5-12.99 7.5h-55.891c7.483-26.62 21.567-50.996 40.951-70.877z"/></svg>