<svg id="Capa_1" enable-background="new 0 0 512 512" height="512" viewBox="0 0 512 512" width="512" xmlns="http://www.w3.org/2000/svg"><path d="m286 180c-58.449 0-106 47.551-106 106s47.551 106 106 106c58.448 0 106-47.551 106-106s-47.552-106-106-106zm0 182c-41.907 0-76-34.093-76-76s34.093-76 76-76c41.906 0 76 34.093 76 76s-34.094 76-76 76z"/><path d="m407.157 120-19.208-60h-203.897l-19.208 60h-164.844v332h512v-332zm8.391 124.607c4.185 13.057 6.452 26.965 6.452 41.393 0 74.991-61.01 136-136 136-74.991 0-136-61.009-136-136 0-14.428 2.267-28.336 6.449-41.394.003.001.234-.718.234-.718 17.771-54.44 69.02-93.888 129.317-93.888 60.301 0 111.553 39.453 129.321 93.899zm-49.496-154.607 20.492 64.008c-27.925-21.322-62.778-34.008-100.544-34.008s-72.62 12.686-100.544 34.008l20.492-64.008zm-336.052 120h30v152h-30zm0 212v-30h60v-212h-60v-30h125.24l-27.059 84.523c-5.302 16.215-8.181 33.515-8.181 51.477 0 56.197 28.075 105.952 70.93 136zm452 0h-100.93c42.855-30.048 70.93-79.803 70.93-136 0-17.891-2.857-35.125-8.118-51.284l-27.121-84.716h65.239z"/></svg>