<svg xmlns="http://www.w3.org/2000/svg" width="9.559" height="20.512" viewBox="0 0 9.559 20.512">
  <g id="facebook" transform="translate(0)">
    <path id="Pfad_9" data-name="Pfad 9" d="M131.98,6.721V4.954a3.894,3.894,0,0,1,.037-.616,1.2,1.2,0,0,1,.168-.43.686.686,0,0,1,.423-.292,3.013,3.013,0,0,1,.778-.081h1.767V0h-2.825a4.6,4.6,0,0,0-3.523,1.164,4.9,4.9,0,0,0-1.07,3.429V6.721h-2.116v3.535h2.116V20.512h4.245V10.256H134.8l.373-3.535Z" transform="translate(-125.619)" fill="#fff"/>
  </g>
</svg>
