<svg id="Capa_1" enable-background="new 0 0 511.756 511.756" height="512" viewBox="0 0 511.756 511.756" width="512" xmlns="http://www.w3.org/2000/svg"><path d="m470.329 289.006v-64.18c0-57.282-22.307-111.135-62.812-151.64-40.504-40.505-94.357-62.812-151.64-62.812s-111.136 22.307-151.64 62.811c-40.505 40.505-62.812 94.358-62.812 151.64v64.181c-23.852 6.587-41.425 28.466-41.425 54.386v71.494c0 31.114 25.313 56.426 56.426 56.426h34.109v30.07h90.14v-244.486h-90.14v30.07h-19.109v-62.141c0-101.707 82.745-184.451 184.452-184.451s184.451 82.745 184.451 184.451v62.141h-19.109v-30.07h-90.14v244.486h90.14v-30.07h34.109c31.114 0 56.427-25.313 56.427-56.426v-71.494c0-25.92-17.573-47.799-41.427-54.386zm-349.793-2.11h30.14v184.486h-30.14zm-30 154.416h-34.11c-14.571 0-26.426-11.855-26.426-26.426v-71.494c0-14.571 11.855-26.426 26.426-26.426h34.109v124.346zm300.684 30.07h-30.14v-184.486h30.14zm90.536-56.496c0 14.571-11.855 26.426-26.427 26.426h-34.109v-124.346h34.109c14.571 0 26.427 11.855 26.427 26.426z"/></svg>